<svg xmlns="http://www.w3.org/2000/svg" viewBox="0 0 76 76" fill="none"><g clip-path="url(#a)"><path fill="#9F2AC8" d="M66.19 9.763A9.456 9.456 0 0 0 56.734.307H9.456A9.456 9.456 0 0 0 0 9.763v47.279a9.456 9.456 0 0 0 9.456 9.456h47.278a9.456 9.456 0 0 0 9.456-9.456V9.763Z"/><path fill="#272CAA" fill-rule="evenodd" d="M0 57.09a9.456 9.456 0 0 0 9.456 9.408 9.456 9.456 0 0 0 9.456 9.455H66.19a9.456 9.456 0 0 0 9.456-9.455V19.219a9.456 9.456 0 0 0-9.456-9.456v47.279a9.456 9.456 0 0 1-9.456 9.456H9.456v-.001A9.456 9.456 0 0 1 0 57.089Z" clip-rule="evenodd"/><path fill="#0E14A0" fill-opacity=".9" fill-rule="evenodd" d="M66.19 9.763H18.912a9.456 9.456 0 0 0-9.456 9.456v47.279h47.278a9.456 9.456 0 0 0 9.456-9.456V9.763Z" clip-rule="evenodd"/><path fill="#fff" fill-rule="evenodd" d="m44.743 59.899.105-.135.42-.536c.371-.47.917-1.157 1.61-2.019a360.273 360.273 0 0 1 5.725-6.933c4.733-5.588 10.91-12.53 16.846-18.176l-6.517-6.851c-6.297 5.989-12.728 13.23-17.544 18.916a373.803 373.803 0 0 0-4.523 5.444c-.273-.318-.557-.647-.848-.983-2.564-2.957-5.812-6.616-8.306-9.11L25.024 46.2c2.234 2.234 5.29 5.667 7.847 8.618 1.39 1.605 2.768 3.22 4.134 4.846l.253.302.08.096 3.769 4.522 3.636-4.685Z" clip-rule="evenodd"/></g><defs><clipPath id="a"><path fill="#fff" d="M0 0h76v76H0z"/></clipPath></defs></svg>
